<mxfile>
    <diagram id="nmYvi8qGq6PqC2IRUNrf" name="Page-1">
        <mxGraphModel dx="274" dy="174" grid="1" gridSize="30" guides="1" tooltips="1" connect="1" arrows="1" fold="1" page="1" pageScale="1" pageWidth="413" pageHeight="291" background="#ffffff" math="0" shadow="0">
            <root>
                <mxCell id="0"/>
                <mxCell id="1" parent="0"/>
                <mxCell id="2" value="" style="shape=crossbar;whiteSpace=wrap;html=1;rounded=1;fontColor=#ffffff;fillColor=none;strokeWidth=4;strokeColor=#9800C7;spacingTop=0;shadow=0;sketch=1;perimeterSpacing=0;" parent="1" vertex="1">
                    <mxGeometry x="67" y="80.5" width="270" height="10" as="geometry"/>
                </mxCell>
                <mxCell id="5" style="rounded=0;orthogonalLoop=1;jettySize=auto;html=1;exitX=0;exitY=0;exitDx=0;exitDy=0;exitPerimeter=0;entryX=0;entryY=0.5;entryDx=0;entryDy=0;entryPerimeter=0;endArrow=none;endFill=0;jumpStyle=none;dashed=1;dashPattern=1 1;strokeColor=#B3B3B3;sketch=1;shadow=0;sketchStyle=comic;" parent="1" source="3" target="12" edge="1">
                    <mxGeometry relative="1" as="geometry"/>
                </mxCell>
                <mxCell id="7" style="edgeStyle=none;rounded=0;jumpStyle=none;orthogonalLoop=1;jettySize=auto;html=1;exitX=1;exitY=0;exitDx=0;exitDy=0;exitPerimeter=0;entryX=1;entryY=0.5;entryDx=0;entryDy=0;entryPerimeter=0;dashed=1;dashPattern=1 1;endArrow=none;endFill=0;strokeColor=#B3B3B3;sketch=1;shadow=0;sketchStyle=comic;" parent="1" source="3" target="12" edge="1">
                    <mxGeometry relative="1" as="geometry"/>
                </mxCell>
                <mxCell id="3" value="" style="shape=crossbar;whiteSpace=wrap;html=1;rounded=1;fontColor=#ffffff;fillColor=#60a917;strokeWidth=1;strokeColor=#2D7600;sketch=1;shadow=0;sketchStyle=comic;" parent="1" vertex="1">
                    <mxGeometry x="97" y="110.5" width="39" height="10" as="geometry"/>
                </mxCell>
                <mxCell id="9" style="edgeStyle=none;rounded=0;jumpStyle=none;orthogonalLoop=1;jettySize=auto;html=1;exitX=0;exitY=0;exitDx=0;exitDy=0;exitPerimeter=0;dashed=1;dashPattern=1 1;endArrow=none;endFill=0;strokeColor=#B3B3B3;fontColor=#000000;sketch=1;shadow=0;entryX=0;entryY=0.5;entryDx=0;entryDy=0;entryPerimeter=0;sketchStyle=comic;" parent="1" source="4" target="13" edge="1">
                    <mxGeometry relative="1" as="geometry">
                        <mxPoint x="155" y="110.5" as="targetPoint"/>
                    </mxGeometry>
                </mxCell>
                <mxCell id="10" style="edgeStyle=none;rounded=0;jumpStyle=none;orthogonalLoop=1;jettySize=auto;html=1;exitX=1;exitY=0;exitDx=0;exitDy=0;exitPerimeter=0;dashed=1;dashPattern=1 1;endArrow=none;endFill=0;strokeColor=#B3B3B3;fontColor=#000000;sketch=1;shadow=0;entryX=1;entryY=0.5;entryDx=0;entryDy=0;entryPerimeter=0;sketchStyle=comic;" parent="1" source="4" target="13" edge="1">
                    <mxGeometry relative="1" as="geometry">
                        <mxPoint x="307" y="160.5" as="targetPoint"/>
                    </mxGeometry>
                </mxCell>
                <mxCell id="4" value="" style="shape=crossbar;whiteSpace=wrap;html=1;rounded=1;fontColor=#ffffff;fillColor=#60a917;strokeWidth=1;strokeColor=#2D7600;sketch=1;shadow=0;comic=1;sketchStyle=comic;" parent="1" vertex="1">
                    <mxGeometry x="176" y="110.5" width="101" height="10" as="geometry"/>
                </mxCell>
                <mxCell id="8" value="ref1" style="text;html=1;align=center;verticalAlign=middle;whiteSpace=wrap;rounded=0;fontStyle=1;fontColor=#000000;sketch=0;shadow=0;sketchStyle=comic;glass=0;" parent="1" vertex="1">
                    <mxGeometry x="307" y="90.5" width="40" height="20" as="geometry"/>
                </mxCell>
                <mxCell id="12" value="" style="shape=crossbar;whiteSpace=wrap;html=1;rounded=1;fontColor=#ffffff;fillColor=none;strokeWidth=3;spacingTop=0;shadow=0;sketch=1;strokeColor=#C300FF;" parent="1" vertex="1">
                    <mxGeometry x="116" y="80.5" width="19" height="10" as="geometry"/>
                </mxCell>
                <mxCell id="13" value="" style="shape=crossbar;whiteSpace=wrap;html=1;rounded=1;fontColor=#ffffff;fillColor=none;strokeWidth=3;spacingTop=0;shadow=0;sketch=1;strokeColor=#C300FF;" parent="1" vertex="1">
                    <mxGeometry x="157" y="80.5" width="164" height="10" as="geometry"/>
                </mxCell>
                <mxCell id="15" value="" style="shape=crossbar;whiteSpace=wrap;html=1;rounded=1;fontColor=#ffffff;fillColor=#60a917;strokeWidth=1;strokeColor=#2D7600;sketch=1;shadow=0;sketchStyle=comic;" parent="1" vertex="1">
                    <mxGeometry x="106" y="121" width="39" height="10" as="geometry"/>
                </mxCell>
                <mxCell id="16" value="" style="shape=crossbar;whiteSpace=wrap;html=1;rounded=1;fontColor=#ffffff;fillColor=#60a917;strokeWidth=1;strokeColor=#2D7600;sketch=1;shadow=0;sketchStyle=comic;" parent="1" vertex="1">
                    <mxGeometry x="118" y="130.5" width="39" height="10" as="geometry"/>
                </mxCell>
                <mxCell id="17" value="" style="shape=curlyBracket;whiteSpace=wrap;html=1;rounded=1;shadow=0;sketch=1;strokeColor=#A50040;strokeWidth=1;fillColor=#d80073;fontColor=#ffffff;rotation=-90;perimeterSpacing=0;comic=1;sketchStyle=comic;" parent="1" vertex="1">
                    <mxGeometry x="217.5" y="80" width="18" height="101" as="geometry"/>
                </mxCell>
                <mxCell id="18" value="l_seq" style="text;html=1;strokeColor=none;fillColor=none;align=center;verticalAlign=middle;whiteSpace=wrap;rounded=0;shadow=0;sketch=0;fontColor=#000000;horizontal=1;labelPosition=center;verticalLabelPosition=middle;" parent="1" vertex="1">
                    <mxGeometry x="206.5" y="130.5" width="40" height="20" as="geometry"/>
                </mxCell>
                <mxCell id="19" value="pos" style="text;html=1;strokeColor=none;fillColor=none;align=left;verticalAlign=bottom;whiteSpace=wrap;rounded=0;shadow=0;sketch=0;fontColor=#000000;" parent="1" vertex="1">
                    <mxGeometry x="157" y="60" width="40" height="20" as="geometry"/>
                </mxCell>
                <mxCell id="20" value="" style="endArrow=async;html=1;shadow=0;dashed=1;dashPattern=1 1;fontColor=#000000;exitX=0.361;exitY=0.606;exitDx=0;exitDy=0;exitPerimeter=0;entryX=0.5;entryY=0.5;entryDx=0;entryDy=0;entryPerimeter=0;endFill=0;strokeColor=#666666;sketch=1;sketchStyle=comic;" parent="1" source="13" target="4" edge="1">
                    <mxGeometry width="50" height="50" relative="1" as="geometry">
                        <mxPoint x="210" y="140" as="sourcePoint"/>
                        <mxPoint x="260" y="90" as="targetPoint"/>
                    </mxGeometry>
                </mxCell>
                <mxCell id="21" value="alignment" style="edgeLabel;html=1;align=center;verticalAlign=bottom;resizable=0;points=[];fontColor=#000000;labelBackgroundColor=none;" parent="20" vertex="1" connectable="0">
                    <mxGeometry x="0.3541" y="1" relative="1" as="geometry">
                        <mxPoint as="offset"/>
                    </mxGeometry>
                </mxCell>
                <mxCell id="22" value="unmapped" style="shape=datastore;whiteSpace=wrap;html=1;shadow=0;labelBackgroundColor=none;sketch=1;strokeColor=#666666;strokeWidth=1;align=center;verticalAlign=bottom;fontColor=#333333;sketchStyle=rough;fillStyle=zigzag;fillColor=#f5f5f5;" parent="1" vertex="1">
                    <mxGeometry x="270" y="181" width="67" height="47" as="geometry"/>
                </mxCell>
                <mxCell id="24" value="" style="shape=crossbar;whiteSpace=wrap;html=1;rounded=1;fontColor=#ffffff;fillColor=#60a917;strokeWidth=1;strokeColor=#2D7600;sketch=0;shadow=0;comic=1;" parent="1" vertex="1">
                    <mxGeometry x="284" y="204" width="39" height="10" as="geometry"/>
                </mxCell>
                <mxCell id="25" value="" style="shape=crossbar;whiteSpace=wrap;html=1;rounded=1;fontColor=#ffffff;fillColor=none;strokeWidth=4;strokeColor=#9800C7;spacingTop=0;shadow=0;sketch=1;" parent="1" vertex="1">
                    <mxGeometry x="67" y="192" width="173" height="10" as="geometry"/>
                </mxCell>
                <mxCell id="26" value="ref2" style="text;html=1;align=center;verticalAlign=middle;whiteSpace=wrap;rounded=0;fontStyle=1;fontColor=#000000;sketch=0;shadow=0;" parent="1" vertex="1">
                    <mxGeometry x="200" y="202" width="40" height="9.5" as="geometry"/>
                </mxCell>
                <mxCell id="27" value="" style="shape=crossbar;whiteSpace=wrap;html=1;rounded=1;fontColor=#ffffff;fillColor=#60a917;strokeWidth=1;strokeColor=#2D7600;sketch=1;shadow=0;comic=1;sketchStyle=comic;" parent="1" vertex="1">
                    <mxGeometry x="91" y="202" width="29" height="10" as="geometry"/>
                </mxCell>
                <mxCell id="28" value="" style="shape=crossbar;whiteSpace=wrap;html=1;rounded=1;fontColor=#ffffff;fillColor=#60a917;strokeWidth=1;strokeColor=#2D7600;sketch=1;shadow=0;comic=1;sketchStyle=comic;" parent="1" vertex="1">
                    <mxGeometry x="168" y="212" width="39" height="10" as="geometry"/>
                </mxCell>
            </root>
        </mxGraphModel>
    </diagram>
</mxfile>
